Coordinates
version=1
nRows=10
nColumns=40
inDegrees=yes

Units are S.I. units (second, meters, Newtons, ...)
Angles are in degrees.

endheader
time	pelvis_tilt	pelvis_list	pelvis_rotation	pelvis_tx	pelvis_ty	pelvis_tz	hip_flexion_r	hip_adduction_r	hip_rotation_r	knee_angle_r	knee_angle_r_beta	ankle_angle_r	subtalar_angle_r	mtp_angle_r	hip_flexion_l	hip_adduction_l	hip_rotation_l	knee_angle_l	knee_angle_l_beta	ankle_angle_l	subtalar_angle_l	mtp_angle_l	lumbar_extension	lumbar_bending	lumbar_rotation	arm_flex_r	arm_add_r	arm_rot_r	elbow_flex_r	pro_sup_r	wrist_flex_r	wrist_dev_r	arm_flex_l	arm_add_l	arm_rot_l	elbow_flex_l	pro_sup_l	wrist_flex_l	wrist_dev_l
      0.51000000	      0.82517174	     -1.77114309	     -1.48656417	     -0.75318398	      0.87748966	      1.44887384	    -12.30826577	     -0.31651120	     -8.92755320	    -22.14206661	     -0.38645197	     12.78784313	      5.73687243	    -10.37379479	     27.81151600	      3.74012960	      9.06958245	    -19.43130129	     -0.33914019	     -0.09259699	     -3.12113752	    -11.57801095	    -10.17528377	      2.44367431	      6.56357690	     19.93892593	    -12.98414887	     16.06124465	     19.90111250	     89.95437384	      0.00000000	      0.00000000	     -1.27320628	      9.08165293	    -17.31495776	      8.69982488	     89.95437384	      0.00000000	      0.00000000
      0.52000000	      0.84717701	     -1.26821293	     -1.57667321	     -0.73983803	      0.87711996	      1.44778336	    -12.54607868	     -1.03780267	     -8.51490974	    -23.31895237	     -0.40699250	     11.50344312	      4.98598194	    -10.02628200	     27.42560537	      3.03123375	      8.17263162	    -19.96836981	     -0.34851380	     -0.29173199	     -2.26973946	    -11.11913138	     -9.93178452	      1.72003477	      6.26427543	     19.83015205	    -12.63478746	     15.66534914	     19.73188681	     89.95437384	      0.00000000	      0.00000000	     -1.97231679	      9.19216077	    -18.27165952	      7.90941333	     89.95437384	      0.00000000	      0.00000000
      0.53000000	      0.74043663	     -0.80987612	     -1.56974409	     -0.72607655	      0.87677316	      1.44649838	    -12.67505036	     -1.64745726	     -8.14313472	    -24.43275243	     -0.42643198	     10.20235492	      3.83181226	     -9.57917259	     26.97218852	      2.11759912	      6.97825844	    -20.39769607	     -0.35600696	     -2.47882429	      1.90124972	     -9.44066931	     -9.47150791	      1.07266287	      5.99795140	     19.30662297	    -12.32942602	     14.47106925	     20.03228934	     89.95437384	      0.00000000	      0.00000000	     -3.17571294	      9.88752484	    -22.66261761	      8.61630083	     89.95437384	      0.00000000	      0.00000000
      0.54000000	      0.63488613	     -0.58468691	     -1.52809629	     -0.71207354	      0.87658226	      1.44529762	    -12.66813298	     -2.03232305	     -7.87716685	    -25.75939149	     -0.44958619	      8.81818723	      3.45900376	     -9.15603653	     26.79722380	      1.78115162	      6.87534810	    -21.59224728	     -0.37685581	     -4.48066259	      2.37847689	     -8.76216991	     -8.98362292	      0.67020269	      5.56767786	     18.81984630	    -12.10262933	     14.35988878	     20.25299935	     89.95437384	      0.00000000	      0.00000000	     -4.14090395	     10.11655013	    -22.76701475	      8.69375926	     89.95437384	      0.00000000	      0.00000000
      0.55000000	      0.39396682	     -0.08711266	     -1.53399096	     -0.69811945	      0.87672529	      1.44375780	    -12.22144439	     -2.76938133	     -7.69625094	    -27.52257041	     -0.48035947	      6.84621019	      2.72658757	     -8.59492804	     26.63601955	      1.12720356	      6.53789040	    -22.39062283	     -0.39079009	     -4.79847936	      1.94736514	     -8.40876648	     -8.36901988	      0.01275475	      5.18870305	     18.18393343	    -11.89422638	     14.10794544	     20.53321560	     89.95437384	      0.00000000	      0.00000000	     -4.88254126	     10.35581113	    -22.94860632	      8.75617571	     89.95437384	      0.00000000	      0.00000000
      0.56000000	      0.13814359	      0.36964276	     -1.39398427	     -0.68453685	      0.87730315	      1.44220131	    -11.47658388	     -3.40043035	     -7.76989584	    -29.62262157	     -0.51701228	      4.40102520	      1.70476863	     -7.89580407	     26.64996365	      0.62489840	      6.93949096	    -23.36416962	     -0.40778169	     -4.40002734	      2.10733313	     -8.05653392	     -7.81024396	     -0.59250635	      4.71618696	     17.54577301	    -11.65128151	     13.69329531	     20.80315305	     89.95437384	      0.00000000	      0.00000000	     -5.47699137	     10.60562267	    -23.28182395	      8.84312454	     89.95437384	      0.00000000	      0.00000000
      0.57000000	     -0.45760252	      0.71107730	     -1.07331524	     -0.67094465	      0.87762569	      1.44047281	    -10.14622489	     -3.73857010	     -7.68502548	    -32.02754977	     -0.55898619	      1.52928153	     -0.38478121	     -6.18128641	     26.99578554	      0.04729029	      6.68909745	    -24.49047719	     -0.42743946	     -3.23497440	      3.18334386	     -7.04397997	     -6.83484027	     -1.05290901	      4.16926542	     16.72849972	    -11.29407525	     12.49474339	     20.96414826	     89.95437384	      0.00000000	      0.00000000	     -5.82869464	     10.93880214	    -24.18286795	      8.75968411	     89.95437384	      0.00000000	      0.00000000
      0.58000000	     -0.53377437	      1.16042834	     -0.93133709	     -0.65731146	      0.87906896	      1.43896588	     -9.09293256	     -4.46562709	     -8.20592958	    -34.68345120	     -0.60534042	     -1.88485672	     -1.39232362	     -5.33155615	     26.48688694	     -0.57123640	      6.72565540	    -25.19212829	     -0.43968558	     -2.42759340	      2.63094943	     -6.87981031	     -6.50224580	     -1.63682614	      3.73710877	     16.01196946	    -11.08859093	     12.33609211	     21.17284571	     89.95437384	      0.00000000	      0.00000000	     -5.93816070	     11.09112332	    -24.31763287	      8.56733031	     89.95437384	      0.00000000	      0.00000000
      0.59000000	     -0.84795345	      1.62503726	     -0.71302149	     -0.64382374	      0.88032253	      1.43739117	     -7.55570113	     -5.12919641	     -8.62622311	    -37.46014160	     -0.65380281	     -6.26230907	     -3.83781890	     -3.70929267	     26.07384499	     -1.29759690	      6.56112810	    -25.51390616	     -0.44530167	     -1.87855811	      2.27077561	     -6.49516725	     -5.87862656	     -2.22080621	      3.27250968	     15.17038130	    -10.84334854	     11.90048929	     21.38104049	     89.95437384	      0.00000000	      0.00000000	     -5.96687506	     11.36861190	    -24.53045433	      8.53063982	     89.95437384	      0.00000000	      0.00000000
      0.60000000	     -0.87887333	      1.96853700	     -0.42061143	     -0.63068732	      0.88208140	      1.43569876	     -6.23997544	     -5.68211231	     -9.05575252	    -40.10577445	     -0.69997781	    -11.52155089	     -5.43209498	     -2.32796439	     25.25219214	     -1.90166679	      6.50692171	    -25.70750647	     -0.44868063	     -0.90389290	      2.21782476	     -6.33623635	     -5.68146739	     -2.66126071	      2.68389845	     14.53565586	    -10.63922865	     11.89283026	     21.38236122	     89.95437384	      0.00000000	      0.00000000	     -5.71319294	     11.52008606	    -24.72875702	      8.34298440	     89.95437384	      0.00000000	      0.00000000
